<mxfile host="app.diagrams.net" modified="2023-10-12T01:19:19.758Z" agent="Mozilla/5.0 (Windows NT 10.0; Win64; x64) AppleWebKit/537.36 (KHTML, like Gecko) Chrome/117.0.0.0 Safari/537.36" etag="3MewGj2eRds_y15sQoQ5" version="21.7.2" type="device">
  <diagram name="PÃ¡gina-1" id="NkQSBZjDAQS9dtp1EGzF">
    <mxGraphModel dx="1674" dy="782" grid="1" gridSize="10" guides="1" tooltips="1" connect="1" arrows="1" fold="1" page="1" pageScale="1" pageWidth="827" pageHeight="1169" math="0" shadow="0">
      <root>
        <mxCell id="0" />
        <mxCell id="1" parent="0" />
        <mxCell id="VzbNyM0B9KssDeoqDEF5-12" style="edgeStyle=orthogonalEdgeStyle;rounded=0;orthogonalLoop=1;jettySize=auto;html=1;entryX=0.45;entryY=0;entryDx=0;entryDy=0;entryPerimeter=0;" edge="1" parent="1" source="VzbNyM0B9KssDeoqDEF5-1" target="VzbNyM0B9KssDeoqDEF5-3">
          <mxGeometry relative="1" as="geometry" />
        </mxCell>
        <mxCell id="VzbNyM0B9KssDeoqDEF5-1" value="" style="ellipse;fillColor=strokeColor;html=1;" vertex="1" parent="1">
          <mxGeometry x="380" y="20" width="30" height="30" as="geometry" />
        </mxCell>
        <mxCell id="VzbNyM0B9KssDeoqDEF5-2" value="" style="ellipse;html=1;shape=endState;fillColor=strokeColor;" vertex="1" parent="1">
          <mxGeometry x="225" y="610" width="30" height="30" as="geometry" />
        </mxCell>
        <mxCell id="VzbNyM0B9KssDeoqDEF5-8" style="edgeStyle=orthogonalEdgeStyle;rounded=0;orthogonalLoop=1;jettySize=auto;html=1;entryX=0.5;entryY=0;entryDx=0;entryDy=0;" edge="1" parent="1" source="VzbNyM0B9KssDeoqDEF5-3" target="VzbNyM0B9KssDeoqDEF5-4">
          <mxGeometry relative="1" as="geometry" />
        </mxCell>
        <mxCell id="VzbNyM0B9KssDeoqDEF5-3" value="Adicionar Arquivo xls" style="rounded=1;whiteSpace=wrap;html=1;" vertex="1" parent="1">
          <mxGeometry x="340" y="120" width="120" height="60" as="geometry" />
        </mxCell>
        <mxCell id="VzbNyM0B9KssDeoqDEF5-9" style="edgeStyle=orthogonalEdgeStyle;rounded=0;orthogonalLoop=1;jettySize=auto;html=1;exitX=0;exitY=0.5;exitDx=0;exitDy=0;entryX=0.5;entryY=0;entryDx=0;entryDy=0;" edge="1" parent="1" source="VzbNyM0B9KssDeoqDEF5-4" target="VzbNyM0B9KssDeoqDEF5-6">
          <mxGeometry relative="1" as="geometry" />
        </mxCell>
        <mxCell id="VzbNyM0B9KssDeoqDEF5-11" style="edgeStyle=orthogonalEdgeStyle;rounded=0;orthogonalLoop=1;jettySize=auto;html=1;exitX=1;exitY=0.5;exitDx=0;exitDy=0;entryX=0.5;entryY=0;entryDx=0;entryDy=0;" edge="1" parent="1" source="VzbNyM0B9KssDeoqDEF5-4" target="VzbNyM0B9KssDeoqDEF5-5">
          <mxGeometry relative="1" as="geometry" />
        </mxCell>
        <mxCell id="VzbNyM0B9KssDeoqDEF5-4" value="" style="rhombus;" vertex="1" parent="1">
          <mxGeometry x="385" y="230" width="30" height="30" as="geometry" />
        </mxCell>
        <mxCell id="VzbNyM0B9KssDeoqDEF5-21" style="edgeStyle=orthogonalEdgeStyle;rounded=0;orthogonalLoop=1;jettySize=auto;html=1;exitX=1;exitY=0.5;exitDx=0;exitDy=0;entryX=1.008;entryY=0.4;entryDx=0;entryDy=0;entryPerimeter=0;" edge="1" parent="1" source="VzbNyM0B9KssDeoqDEF5-5" target="VzbNyM0B9KssDeoqDEF5-3">
          <mxGeometry relative="1" as="geometry" />
        </mxCell>
        <mxCell id="VzbNyM0B9KssDeoqDEF5-5" value="Rejeitar arquivo" style="rounded=1;whiteSpace=wrap;html=1;" vertex="1" parent="1">
          <mxGeometry x="510" y="310" width="120" height="60" as="geometry" />
        </mxCell>
        <mxCell id="VzbNyM0B9KssDeoqDEF5-14" style="edgeStyle=orthogonalEdgeStyle;rounded=0;orthogonalLoop=1;jettySize=auto;html=1;exitX=0.5;exitY=1;exitDx=0;exitDy=0;entryX=0.5;entryY=0;entryDx=0;entryDy=0;" edge="1" parent="1" source="VzbNyM0B9KssDeoqDEF5-6" target="VzbNyM0B9KssDeoqDEF5-13">
          <mxGeometry relative="1" as="geometry" />
        </mxCell>
        <mxCell id="VzbNyM0B9KssDeoqDEF5-6" value="Aceitar arquivo" style="rounded=1;whiteSpace=wrap;html=1;" vertex="1" parent="1">
          <mxGeometry x="180" y="310" width="120" height="60" as="geometry" />
        </mxCell>
        <mxCell id="VzbNyM0B9KssDeoqDEF5-19" style="edgeStyle=orthogonalEdgeStyle;rounded=0;orthogonalLoop=1;jettySize=auto;html=1;exitX=0.5;exitY=1;exitDx=0;exitDy=0;entryX=0.5;entryY=0;entryDx=0;entryDy=0;" edge="1" parent="1" source="VzbNyM0B9KssDeoqDEF5-13" target="VzbNyM0B9KssDeoqDEF5-2">
          <mxGeometry relative="1" as="geometry" />
        </mxCell>
        <mxCell id="VzbNyM0B9KssDeoqDEF5-13" value="Atualizar Catalogo" style="rounded=1;whiteSpace=wrap;html=1;" vertex="1" parent="1">
          <mxGeometry x="180" y="460" width="120" height="60" as="geometry" />
        </mxCell>
        <mxCell id="VzbNyM0B9KssDeoqDEF5-15" value="Solicita adicionar arquivo" style="text;html=1;align=center;verticalAlign=middle;resizable=0;points=[];autosize=1;strokeColor=none;fillColor=none;" vertex="1" parent="1">
          <mxGeometry x="410" y="20" width="160" height="30" as="geometry" />
        </mxCell>
        <mxCell id="VzbNyM0B9KssDeoqDEF5-16" value="else" style="text;html=1;align=center;verticalAlign=middle;resizable=0;points=[];autosize=1;strokeColor=none;fillColor=none;" vertex="1" parent="1">
          <mxGeometry x="450" y="220" width="50" height="30" as="geometry" />
        </mxCell>
        <mxCell id="VzbNyM0B9KssDeoqDEF5-22" value="Arquivo Aceito" style="text;html=1;align=center;verticalAlign=middle;resizable=0;points=[];autosize=1;strokeColor=none;fillColor=none;" vertex="1" parent="1">
          <mxGeometry x="240" y="210" width="100" height="30" as="geometry" />
        </mxCell>
      </root>
    </mxGraphModel>
  </diagram>
</mxfile>
